<?xml version="1.0" encoding="utf-8"?>
<svg width="770" height="599" xmlns="http://www.w3.org/2000/svg">
  <defs/>
  <path d="M 359.394 31.203 C 371.094 39.272 380.205 50.803 383 65 C 383.912 72.301 384.046 79.65 384 87 C 386.235 88.407 387.586 89.023 390.25 88.875 C 393.32 87.898 396.01 86.564 398.84 85.035 C 411.488 78.975 424.21 80.771 437 85 C 440.285 86.201 443.547 87.463 446.785 88.785 C 450.175 90.065 453.561 91.013 457.062 91.938 C 472.216 96.138 482.952 103.422 491 117 C 494.096 124.091 496.339 131.449 498 139 C 503.692 138.57 506.973 136.318 511.438 133.062 C 512.855 132.06 514.273 131.058 515.692 130.058 L 517.86 128.515 C 521.172 126.18 524.51 123.883 527.875 121.625 L 529.599 120.438 C 538.183 114.656 546.101 111.356 556.375 109.938 C 563.342 109.163 563.224 109.751 569.394 106.787 C 575.36 97.971 578.403 86.903 581.037 76.709 C 581.397 75.322 583.372 62.548 583.563 57.563 C 583.876 50.123 583.876 50.123 585 49 C 587.75 48.625 587.75 48.625 591 49 C 596.434 53.275 603.979 68.423 603.979 68.423 C 605.327 70.944 606.668 73.47 608 76 C 611.441 72.705 613.7 69.3 615.938 65.125 C 623.056 51.857 623.056 51.857 629 50 C 631.563 49.562 631.563 49.562 634 50 C 636.863 53.772 637.42 56.767 637.625 61.438 L 638.172 72.852 L 638.523 79.942 C 639.042 83.27 640.089 85.257 642 88 C 645.646 86.647 648.826 84.99 652.125 82.937 C 657.768 79.43 661.45 78.79 668 79 C 669 80 669 80 669.285 82.773 C 669.188 89.703 662.529 109.249 662.529 109.249 C 661.963 112.192 662.211 114.132 663 117 L 664.896 117.535 C 667.723 118.334 681.845 122.336 681.845 122.336 C 684 123 684 123 686 124 C 685 127 685 127 681.789 128.762 C 680.404 129.41 679.016 130.052 677.625 130.687 C 670.475 134.105 664.202 138.03 658 143 L 656.055 144.484 C 650.772 148.701 643.649 154.484 642.648 161.445 C 642.89 164.041 643.434 166.455 644 169 C 650.004 199.339 644.254 231.087 634.687 260.125 C 632.248 267.972 632.248 267.972 633 276 C 634.36 278.51 635.928 280.87 637.5 283.25 C 643.163 291.922 643.11 298.572 641.356 308.73 C 639.406 317.602 636.258 325.85 632.643 334.174 C 630.769 338.575 629.295 342.124 630 347 C 630.938 349.22 630.938 349.22 632.438 351.188 L 634.09 353.516 C 636.164 356.213 638.32 358.826 640.5 361.437 C 650.096 373.049 656.614 386.008 655.68 401.37 C 655.24 410.03 664 424 664 424 C 667.79 429.038 668.707 434.075 669.41 440.23 C 670.076 443.357 670.722 444.766 673 447 C 675.793 448.315 675.793 448.315 679 449.313 C 710.864 460.922 746.855 496.583 761.125 527.188 C 764 533.378 764 533.378 764 537 C 764 537 703.269 541.793 673.989 545.04 C 669.008 545.591 605.68 552.391 575.327 556.973 C 563.791 558.694 519.036 564.26 512.063 565.281 C 492.013 568.198 426.999 573.573 414.625 575.063 C 399.199 576.913 319.858 583.306 319.858 583.306 C 304.031 584.681 304.031 584.681 297.578 581.102 C 294.988 578.77 292.778 576.422 290.549 573.758 C 288.222 571.117 285.631 568.792 283.036 566.417 C 269.603 554.116 256.072 541.508 245 527 L 242.668 524.113 C 230.185 508.446 220.642 491.169 211.813 473.25 L 210.356 470.311 C 203.487 456.433 197.022 442.664 192 428 C 191.492 426.544 190.984 425.088 190.475 423.632 C 185.168 408.442 179.95 393.229 175.197 377.855 C 173.247 371.553 171.212 365.278 169.187 359 C 167.793 354.666 166.397 350.333 165 346 C 162.06 347.718 159.276 349.457 156.625 351.594 L 154.828 353.027 L 153 354.5 C 151.794 355.472 150.586 356.44 149.375 357.406 L 147.773 358.697 L 146 360 L 143.94 361.642 C 139.527 363.68 135.382 363.388 130.578 363.328 L 127.436 363.324 C 124.041 363.314 120.646 363.283 117.25 363.25 C 114.904 363.237 112.559 363.226 110.213 363.215 C 95.453 363.129 80.694 362.908 65.938 362.563 L 63.386 362.503 C 54.561 362.292 45.78 361.983 37 361 C 33.293 351.732 35.012 342.296 38 333 C 39.973 329.346 72 297 72 297 L 69.14 295.14 C 54.752 295.545 42.96 291.977 31.969 282.191 C 22.479 272.182 17.689 258.458 17.905 244.792 C 18.583 229.348 24.055 214.194 35 203 C 46.697 193.776 59.765 187.352 75 189 C 90.579 191.335 104.95 196.2 114.75 209.348 C 121.028 219.252 123.605 229.452 125 241 C 128.697 239.768 129.046 238.682 131.063 235.437 C 137.547 225.941 146.102 220.432 157 217 C 159.04 216.655 161.081 216.321 163.125 216 C 172.055 214.108 178.532 208.234 185.618 202.795 C 189.512 199.861 241.815 165.584 263.57 153.367 C 265.772 152.128 303.775 131.693 303.775 131.693 C 305.921 130.58 308.069 129.472 310.219 128.367 L 319 123 L 315.25 122.375 C 300.895 119.147 289.123 110.025 281 98 C 273.25 85.293 272.733 70.213 276 56 C 279.622 43.429 288.062 33.99 299 27 C 318.834 16.61 340.71 19.403 359.395 31.203 L 359.394 31.203 Z M 411.206 208.57 L 408.83 209.616 L 406.242 210.769 L 403.555 211.957 C 400.66 213.239 397.767 214.525 394.875 215.813 L 388.915 218.457 C 345.736 234.173 345.736 234.173 308 258 C 307.577 259.863 307.577 259.863 307.43 262.008 C 306.224 273.278 303.899 282.018 298.245 291.827 C 296.837 294.285 295.485 296.77 294.137 299.262 C 286.987 312.438 286.987 312.438 284.141 316.942 C 282.718 318.958 282.718 318.958 283.563 321.25 L 285 324 C 287.64 329.48 289.702 334.986 291.483 340.797 C 294.773 351.459 298.885 361.567 303.688 371.625 L 304.591 373.517 C 305.504 375.429 306.418 377.342 307.332 379.254 L 308.254 381.18 C 311.616 388.24 314.77 395.387 317.875 402.562 L 318.695 404.455 C 322.569 413.417 326.222 422.444 329.555 431.621 C 331.032 435.661 332.444 439.491 335 443 L 337 443 L 337 445 L 339.09 445.41 L 341.938 446.062 L 344.715 446.66 C 347.885 447.953 349.486 449.172 352.039 451.367 C 357.637 455.879 363.54 457.375 370.438 459.062 L 374.372 460.067 C 388.477 463.599 402.789 466.032 417.132 468.364 C 420.594 468.934 424.047 469.534 427.5 470.152 C 438.193 472.052 448.892 473.555 459.688 474.75 L 463.125 475.137 C 470.773 475.935 478.313 476.142 486 476 L 488 472 C 484.793 468.29 481.664 466.824 477.125 465.062 C 465.503 460.307 465.503 460.307 462.438 453.562 C 461.903 449.209 462.53 447.585 465 444 C 472.119 437.079 480.707 435.866 490.164 435.281 C 492.899 435.313 492.899 435.313 494 434 C 494.916 422.472 493.23 412.044 490 401 L 489.125 397.977 C 487.33 392.512 484.809 387.561 482 382.562 L 480.993 380.769 C 478.144 375.886 476.041 372.72 470.613 370.805 C 469.185 370.472 467.751 370.164 466.313 369.875 L 463.908 369.367 C 453.829 367.465 443.531 367.18 433.3 366.859 L 431.177 366.771 C 429.255 366.692 427.332 366.633 425.409 366.574 C 420.413 365.733 417.352 363.242 413.688 359.875 C 408.083 355.965 401.198 355.902 394.563 355.125 C 386.725 354.121 380.45 352.114 373.723 347.992 C 369.331 345.452 364.797 344.584 359.873 343.578 C 352.929 342.03 348.108 338.933 344 333 C 343.075 330.224 342.711 328.146 342.563 325.25 L 342.379 322.766 C 343.171 319.239 344.268 317.059 346.719 314.396 C 351.847 311.257 358.557 312.397 364.375 312.688 C 378.751 313.394 378.751 313.394 392.313 309.063 L 394.238 308.098 C 396.228 306.858 397.626 305.917 399 304 C 398.87 299.604 396.816 297.149 394.125 293.812 C 389.868 288.109 386.935 282.92 387.031 275.656 C 388.158 268.182 392.773 263.418 398.648 259.016 C 400.401 257.799 402.172 256.609 403.961 255.446 C 406.118 254.157 406.118 254.157 407 252 C 407.078 250.48 407.138 248.959 407.188 247.437 C 407.532 243.24 408.323 241.283 411.063 238.125 C 415.237 232.655 414.399 226.56 414.041 220.006 C 413.726 213.458 413.726 213.458 415.488 210.52 L 417 209 L 417 207 C 414.644 207 413.359 207.616 411.207 208.57 L 411.206 208.57 Z" fill="#0A0604"/>
  <path d="M280 326c1.875.063 1.875.063 4 1 2.502 4.356 4.022 8.895 5.438 13.688 4.347 14.277 10.033 27.883 16.046 41.527 1.577 3.591 3.098 7.19 4.516 10.848 1.919 4.904 4.177 9.64 6.427 14.397a208.698 208.698 0 0 1 5.682 13.286c1.895 4.794 4.03 9.489 6.29 14.121l1.413 2.945 1.332 2.707c.968 2.806.916 3.761-.144 6.481a82.547 82.547 0 0 1-7.75 3.938c-5.376 2.412-9.32 4.615-13.25 9.062 5.519-1.381 10.27-3.45 15.313-6.063l2.166-1.103c1.843-.94 3.682-1.886 5.521-2.834 3.462-1.731 7.215-1.488 11-1 2.362 1.097 3.965 2.33 6 4-.254 1.87-.254 1.87-1 4-1.718 1.157-1.718 1.157-3.93 2.07l-2.41 1.028-2.535 1.027a1908.163 1908.163 0 0 0-4.93 2.07l-2.218.907c-2.223.946-2.223.946-4.977 2.898v2c3.499-.59 6.412-1.5 9.61-3.031l2.534-1.207 2.606-1.262 2.652-1.262c4.066-1.717 4.066-1.717 7.598-4.238 3.74-.374 6.62.113 10.102 1.367 4.864 1.668 9.757 2.89 14.773 4.008l2.844.638c21.304 4.696 42.759 8.17 64.396 10.882 2.636.33 5.273.663 7.91.996 3.519.443 7.039.878 10.56 1.308l4.938.617 2.274.272c4.572.579 8.802 1.54 13.203 2.912-1.58 3.647-3.854 6.313-6.438 9.313-6.41 7.726-8.674 14.31-8.812 24.375l-.078 3.449L469 521c3.273 2.182 3.666 2.21 7.313 1.688l2.39-.329c4.154-.648 4.154-.648 8.297-1.359-1.32 4.256-2.958 8.105-5 12.063-3.813 7.113-3.813 7.113-5 14.937h3c1.692-3.79 3.383-7.58 5.072-11.37a5398.193 5398.193 0 0 1 1.726-3.868 5011.641 5011.641 0 0 0 2.48-5.563l1.507-3.38c1.262-2.818 1.262-2.818 2.215-5.819l5-1c8.024 12.343 8.024 12.343 7 19-1.401 2.4-2.934 4.62-4.59 6.852-1.38 2.103-1.971 3.692-2.41 6.148 4.826-1.368 6.155-3.438 8.625-7.688 2.047-2.996 2.047-2.996 4.375-5.312 4.593-.85 8.83-.085 13 2v10l4 1 .262-1.793c.995-5.595 2.08-8.617 6.738-12.207 2.601-1.616 5.22-3.17 7.89-4.668 2.24-1.159 2.24-1.159 3.11-3.332h2l.938-2.375C550 522 550 522 551 520h2l.55 2.195c2.197 9.02 2.197 9.02 7.2 16.68 3.97 1.985 7.4 1.667 11.61.434 5.31-1.971 9.815-4.569 14.437-7.817 2.117-1.434 4.25-2.623 6.516-3.805C603.26 522.263 611.74 514.668 620 507c.99-.9 1.98-1.798 2.973-2.695A905.051 905.051 0 0 0 632 496l2.41-2.242c10.886-10.483 18.843-22.89 26.59-35.758l1.961-3.238A953.781 953.781 0 0 0 667 448c27.849 6.045 62.596 38.829 78.422 61.66 2.37 3.687 4.473 7.498 6.578 11.34a317.398 317.398 0 0 0 5.039 7.398C758 530 758 530 758 532l-2.352.122c-21.478 1.148-42.795 3.1-64.167 5.49-3.135.35-6.27.692-9.405 1.034a6009.616 6009.616 0 0 0-56.656 6.478 3180.525 3180.525 0 0 1-17.659 2.042c-27.976 3.16-27.976 3.16-55.824 7.271-42.14 6.896-84.806 10.818-127.347 14.22-9.013.727-17.932 1.611-26.887 2.877-6.414.808-12.857 1.217-19.304 1.67-13.08.928-26.039 2.166-39.024 3.984-30.24 4.058-30.24 4.058-37.316.214-2.602-2.3-4.777-4.785-7.059-7.402-2.169-1.97-4.43-3.821-6.688-5.688C273.902 552.063 260.236 539.28 249 524l-1.55-2.084c-15.412-20.771-27.475-42.874-38.325-66.353l-1.296-2.791c-3.372-7.416-6.235-14.998-9.043-22.64-1.055-2.862-2.123-5.72-3.191-8.577a6307.841 6307.841 0 0 1-3.272-8.782 5921.074 5921.074 0 0 0-1.646-4.416 1560.53 1560.53 0 0 1-11.007-30.442c-.46-1.315-.92-2.63-1.383-3.944-2.562-7.298-4.82-14.585-6.662-22.096l-.545-2.154c-1.644-7.018-1.644-7.018-.08-10.721 4.169-3.958 9.54-8.296 15.266-9.461 2.346.25 4.458.828 6.734 1.461 2.077.4 4.16.759 6.245 1.114 1.46.25 2.92.51 4.377.78 21.81 4.032 54.037 6.94 73.866-4.808 1.484-1.004 1.484-1.004 2.512-2.086z" fill="#F1A779"/>
  <path d="M588 51c1.88.308 1.88.308 4 1a62.856 62.856 0 0 1 3.875 7.125l1.037 2.147C600.29 68.373 603.212 75.65 606 83h3a73.904 73.904 0 0 0 4.688-6.188l1.324-1.895c3.681-5.327 7.083-10.807 10.394-16.37C627 56 627 56 629 54c2.625.375 2.625.375 5 1 .288 4.553.573 9.106.855 13.66l.29 4.637c.142 2.234.28 4.469.418 6.703l.132 2.062c.283 4.657.341 9.275.305 13.938 3.699-1.331 6.59-2.984 9.75-5.313 3.295-2.341 6.59-4.617 10.063-6.687l2.082-1.25c2.694-.96 4.391-.508 7.105.25-.517 7.045-2.131 13.052-4.5 19.688-2.861 7.996-2.861 7.996-4.5 16.312l3.578.805 4.672 1.07 2.356.527 2.285.528 2.094.476c2.162.637 4.031 1.532 6.015 2.594v2l-2.746 1.285C666.813 131.838 660.261 135.56 654 141l-2.336 1.938c-8.322 6.792-8.322 6.792-13.133 16.074-.203 4.574.87 8.699 1.969 13.113 5.183 23.239.471 49.224-5.5 71.875a868.317 868.317 0 0 0-1.562 6.813c-.769 3.378-1.582 6.675-2.563 10-1.028 3.743-1.469 7.329-1.875 11.187-3.658 1.22-4.248.654-7.625-.938-4.96-2.025-9.07-3.534-14.375-2.062a180.786 180.786 0 0 0-5.562 4c-9.393 6.382-20.54 4.693-31.438 4 .514-3.802 1.062-7.529 2-11.25 3.19-14.021 1.954-27.689 0-41.75 3.945.607 7.34 1.385 11 3-2.506-3.759-4.547-4.342-8.687-6.063l-3.637-1.535c-7.025-2.68-12.97-3.692-20.414-3.71l-5.674-.077a2648.384 2648.384 0 0 0-8.846-.071c-2.87-.022-5.737-.062-8.605-.103h-2.628c-9.044-.144-20.554-2.404-27.157-9.117-1.83-3.145-2.106-5.975-2.54-9.574l-.48-3.828L494 190l-3 1v15c-25.694-5.684-25.694-5.684-35-14v-2l2.02-1.066c17.768-9.518 30.64-17.98 36.98-37.934.468-2.341.747-4.622 1-7 1-1 1-1 2.828-1.184 8.288-.869 13.362-5.45 19.55-10.519 14.086-11.269 28.972-18.125 46.946-19.42l2.473-.217 2.23-.168c2.485-.62 3.37-1.519 4.973-3.492 3.678-6.438 5.693-13.073 7.688-20.188l.931-3.232c1.782-6.235 3.418-12.157 3.697-18.662l.127-2.822.12-2.909.13-2.966c.106-2.407.208-4.814.307-7.221z" fill="#F9A500"/>
  <path d="M 470.974 115.03 C 480.46 120.31 486.36 128.275 491 138 C 491.725 141.454 491.573 143.446 491 147 C 488.779 150.332 488.2 150.545 484.562 151.684 L 479 153.437 C 472.617 155.452 466.358 157.582 460.162 160.118 C 457.735 161.108 455.285 162.006 452.812 162.875 C 448.083 164.58 443.414 166.408 438.754 168.295 C 434.236 170.113 429.706 171.9 425.164 173.656 L 419.559 175.836 C 417.732 176.546 415.903 177.249 414.074 177.953 C 408.059 180.296 402.282 182.807 396.551 185.773 C 393.685 187.151 390.779 188.273 387.801 189.387 C 380.416 192.159 373.313 195.445 366.187 198.812 L 362.157 200.707 C 353.034 205.003 343.963 209.378 335 214 L 331.737 215.677 C 327.927 217.635 324.119 219.597 320.312 221.563 L 318.456 222.52 C 316.654 223.451 314.852 224.383 313.051 225.316 L 309.505 227.152 C 307.146 228.392 304.802 229.66 302.474 230.957 C 296.849 234.081 291.927 236.801 285.562 237.875 L 281.773 238.531 C 278.068 238.991 274.416 239.213 270.687 239.375 C 262.238 239.843 255.115 243.076 249 249 C 246.674 252.8 246.761 256.108 246.734 260.465 C 245.104 266.096 237.616 269.711 232.864 272.809 L 228.702 275.552 L 226.528 276.98 C 214.038 285.195 201.727 293.559 189.827 302.616 C 188.158 303.875 186.48 305.122 184.793 306.356 C 176.583 312.39 168.771 318.886 160.939 325.398 C 158.396 327.498 155.822 329.56 153.25 331.625 C 147.97 335.932 143.003 340.546 138.023 345.191 C 134.425 348.546 130.781 351.851 127 355 L 125.476 356.567 C 121.667 358.771 118.019 358.389 113.696 358.328 L 110.921 358.322 C 108.979 358.316 107.038 358.302 105.096 358.282 C 102.17 358.251 99.246 358.24 96.32 358.234 C 86.172 358.192 76.111 357.929 66 357 C 70.503 346.844 81.413 338.43 89.202 330.667 C 91.065 328.808 92.926 326.945 94.783 325.08 C 100.158 319.702 105.52 314.37 111.316 309.44 C 114.064 307.09 116.676 304.598 119.312 302.125 C 124.12 297.657 129.089 293.366 134.211 289.262 C 136.681 287.251 139.121 285.203 141.531 283.12 C 149.752 276.057 158.345 269.518 167 263 L 171.008 259.965 C 197.079 240.263 197.079 240.263 209.242 232.731 C 212.645 230.595 215.977 228.363 219.312 226.125 C 242.122 210.883 265.539 195.753 290.334 183.919 C 292.189 182.997 297.035 180.195 297.035 180.195 C 301.927 178.895 306.069 176.375 310.437 173.875 C 312.235 172.867 318.511 169.369 318.511 169.369 C 324.569 166.037 330.78 163.016 337 160 L 340.175 158.458 C 343.761 156.719 347.348 154.983 350.937 153.25 L 354.422 151.567 C 363.826 147.044 373.19 142.854 382.984 139.247 C 385.868 138.055 388.346 136.627 391 135 C 392.442 134.358 401 131 401 131 C 403.375 130.043 405.75 129.084 408.125 128.125 C 413.605 125.929 419.105 123.783 424.625 121.687 L 426.633 120.917 C 430.063 119.625 446.208 113.543 448.938 112.375 C 457.255 109.286 463.272 110.998 470.974 115.03 Z" fill="#E57159"/>
  <path d="M 619.633 272.98 C 628.354 277.211 632.697 281.393 637 290 C 637.788 303.683 635.782 314.374 630.281 326.98 L 629 330 L 628.191 331.833 C 626.081 336.924 625.616 341.339 625.562 346.813 C 625.331 353.972 624.653 360.651 621 367 C 617.317 369.455 614.28 369.59 610 369 C 607.75 367.562 607.75 367.562 606 366 C 603.853 365.295 603.853 365.295 602 365 C 602.29 367.81 602.816 368.833 604.938 370.75 C 610.431 372.992 615.765 372.704 621.375 370.938 C 626.421 367.213 628.272 361.904 630 356 C 634.232 357.5 636.043 360.535 638.313 364.188 L 639.486 366.045 C 648.46 380.592 653.503 394.638 650.492 411.915 C 647.725 419.948 641.375 426.568 636 433 L 634 432 L 633.687 428.687 C 633.062 422.653 630.543 417.448 628 412 L 626.547 408.856 L 625.063 405.875 L 623.723 403.18 C 621.489 400.353 619.438 399.851 616 399 L 617.355 400.984 C 624.784 412.198 632.37 426.104 630 440 C 626.639 448.067 622.346 456.613 614.375 460.813 L 612.023 462.082 C 610 463 610 463 608 463 L 608 443 L 603 444 L 603.003 445.984 C 602.991 448.991 602.933 451.994 602.875 455 L 602.883 458.121 C 602.697 465.401 601.262 469.861 596 475 C 593.735 476.855 586.125 480.12 583.651 481.703 C 584.184 481.681 583.666 483.251 584.253 483.172 C 586.393 482.881 589.931 480.6 592.408 479.696 C 597.45 477.856 602.575 474.999 605.282 472.159 C 606.183 470.975 604.797 470.628 605.688 469.437 C 608.36 466.147 610.988 465.027 614.938 463.562 C 624.714 459.816 628.345 453.039 632.641 443.832 C 634.816 439.3 636.732 435.945 640.75 432.875 C 645.113 429.251 647.68 425.062 650.457 420.16 L 652 418 L 655 418 C 657.008 420.336 657.008 420.336 659.125 423.375 L 661.258 426.398 C 664.128 430.684 664.573 433.906 664 439 C 659.295 458.329 646.23 473.84 633.362 488.431 C 632.009 490 630.68 491.59 629.375 493.199 C 627.439 495.482 625.593 497.398 623.312 499.312 C 620.259 501.918 617.258 504.586 614.312 507.312 C 606.642 514.216 598.602 521.002 589.372 525.711 C 586.899 527.055 584.592 528.585 582.252 530.143 C 576.599 533.848 570.988 537.228 564 536 C 560.412 533.623 559.266 529.373 557.812 525.5 L 556.999 523.35 C 554.918 517.497 554.289 512.21 555 506 L 557.273 505.223 C 568.613 500.98 577.671 493.436 584 483 C 584.158 479.947 584.158 479.947 583 477 C 582.54 470.782 583.687 465.46 585.246 459.441 C 588.945 442.558 588.386 424.382 583 408 L 582.125 405.14 C 574.648 382.575 560.756 363.58 542.303 348.803 C 537.435 344.79 534.263 340.371 531 335 L 529.204 332.096 C 527.294 328.976 525.425 325.836 523.563 322.688 L 521.596 319.443 L 519.754 316.324 L 518.076 313.514 C 517 311 517 311 517.185 308.772 C 518.459 306.002 520.575 305.165 523.188 303.687 C 526.94 301.471 529.383 299.817 531.688 296.125 C 533.867 293.265 534.911 293.014 538.567 292.445 C 541.375 292.271 544.18 292.222 546.992 292.172 C 552.659 292.038 557.938 290.531 563 288 C 563.374 285.673 563.707 283.339 564 281 C 566.476 278.524 573.109 279.815 576.438 279.812 L 579.698 279.775 L 582.808 279.77 L 585.678 279.757 C 588 280 588 280 590 282 L 590 286 L 591.938 283.937 C 599.711 276.164 608.213 268.727 619.633 272.98 Z" fill="#F9A500"/>
  <path d="M487 295c3.188 1.912 5.468 4.312 8 7 3.076 2.734 5.089 3.234 9.125 3.688 5.858 1.507 7.926 4.41 10.875 9.375a333.59 333.59 0 0 1 3.697 6.589c2.254 4.062 4.693 8.01 7.116 11.973l1.345 2.258c3.72 6.175 7.544 11.399 13.404 15.742C561.1 367.768 572.534 388.303 580 413l.973 2.871c4.68 15.35 2.076 31.766-.223 47.316l-.31 2.153c-1.82 12.423-3.86 23.893-14.315 31.848-8.702 5.047-16.056 6.252-26.117 4.203-6.45-1.832-6.45-1.832-9.008-4.391-.125-3.125-.125-3.125 0-6l-3.945.105c-1.727.029-3.453.056-5.18.082l-2.594.077c-9.693.111-14.819-4.097-21.777-10.553C493.979 476.894 491 472.365 491 467c-4.71-2.467-9.673-4.358-14.59-6.367-4.404-2.109-7.718-3.864-9.535-8.508.142-3.542 1.04-5.2 3.508-7.734 6.27-5.391 12.85-6.45 21.062-6.032 12.654 1.32 24.894 8.39 35.61 14.88 8.816 5.273 15.665 6.657 25.945 5.761 6.346-2.783 8.651-7.597 11.09-13.75 2.858-10.206 1.07-21.352-2.09-31.25l-1.254-4.18c-6.158-19.958-14.639-37.868-32.512-49.664C525 358 525 358 522.29 355.828c-7.429-5.933-16.211-5.593-25.289-4.828-3.448.434-6.88.962-10.313 1.5-14.849 2.313-29.493 4.102-42.5-4.625l-2.144-1.57c-2.046-1.307-3.671-1.868-6.043-2.305 1.736 3.058 3.385 5.634 6 8l-2 4c-9.766.644-21.286-.017-29.438-6.125-3.031-3.401-5.508-7.02-7.949-10.863L401 337h-3c.744 4.663 3.62 7.385 6.602 10.879L406 350l-1 3c-9.303.558-17.22.813-25-5-3.183-2.973-5.488-6.128-7.688-9.875-1.194-2.442-1.194-2.442-4.312-3.125v7c-6.851.411-10.942-1.274-16.25-5.438-2.999-2.794-4.462-4.69-5.086-8.746-.071-4.102-.018-6.25 2.211-9.816 3.669-3.453 6.01-3.087 10.969-2.992l4.218.05c2.208.031 4.415.066 6.621.113 14.327.735 14.327.735 26.69-5.34l2.549-2.46c7.54-6.54 15.866-5.524 25.328-5.309 3.38.028 6.76.033 10.14.036l2.483.01c9.972-.011 19.942-.997 29.44-4.17l3.175-1.036c5.74-2.062 10.3-2.875 16.512-1.902z" fill="#BA8732"/>
  <path d="m435.938 107.938 3.806.013c3.085.012 6.17.028 9.256.049l1 2c-9.544 3.773-19.091 7.486-28.812 10.782-5.134 1.765-10.124 3.821-15.126 5.928a904.421 904.421 0 0 1-8.464 3.509c-31.752 13.056-63.056 27.32-93.311 43.566a571.62 571.62 0 0 1-7.267 3.781C283.392 184.574 270.168 192.17 257 200l-3.747 2.22C239.287 210.498 225.371 218.78 212 228a2314.247 2314.247 0 0 1-5.938 3.938A931.239 931.239 0 0 0 165 261l-1.896 1.419c-7.198 5.407-14.142 11.071-20.979 16.925-2.876 2.458-5.806 4.843-8.75 7.218-4.763 3.876-9.309 7.95-13.828 12.106a311.494 311.494 0 0 1-6.485 5.77A2042.146 2042.146 0 0 0 109 308l-2.352 2.066c-6.798 6.103-13.324 12.477-19.804 18.914-1.005.997-2.011 1.993-3.02 2.987-6.002 5.927-11.633 12.011-16.862 18.64-5.087 6.204-5.087 6.204-8.068 6.847l-2.222-.063-2.422-.04-2.5-.101-2.547-.055A433.55 433.55 0 0 1 43 357c.504-4.173 1.546-5.989 4.625-8.813 2.754-2.612 5.352-5.233 7.812-8.125 3.204-3.728 6.63-7.171 10.157-10.593 1.979-2.03 3.815-4.094 5.656-6.246 3.816-4.398 7.973-8.341 12.25-12.285 1.449-1.344 2.897-2.69 4.344-4.036l2.118-1.97a236.889 236.889 0 0 0 5.745-5.662c2.688-2.711 5.478-5.155 8.48-7.52a214.992 214.992 0 0 0 11.876-10.312 204.295 204.295 0 0 1 13.132-11.227 406.864 406.864 0 0 0 6.422-5.172 665.254 665.254 0 0 1 26.581-20.702c2.571-1.908 5.123-3.843 7.677-5.774C191.915 222.07 214.572 206.458 238 192l2.17-1.348c26.893-16.695 54.464-32.05 82.767-46.214l2.044-1.024c10.584-5.29 21.117-10.451 32.288-14.39 2.71-1.016 5.3-2.17 7.918-3.399 11.82-5.43 23.89-9.349 36.375-12.937l3.678-1.06c10.49-2.958 19.82-3.765 30.698-3.69z" fill="#AC3A23"/>
  <path d="M320.414 26.84c10.33-.368 19.881 3.356 27.79 10.016 9.016 8.632 12.894 18.174 13.171 30.644-.37 14.695-6.51 24.49-16.984 34.59-3.803 3.038-7.762 4.54-12.391 5.91l-1.953.676A39.683 39.683 0 0 1 300 106c-9.957-6.355-16.278-14.154-19.75-25.438-1.275-13.066.82-26.758 8.938-37.44C292.491 39.386 295.774 35.704 300 33h3v-2c5.814-2.786 11.02-3.736 17.414-4.16z" fill="#104456"/>
  <path d="M 474.969 106.293 C 482.465 112.792 488.003 119.897 492 129 L 492 131 L 490 131 C 488.623 129.347 487.289 127.659 486 125.937 C 476.732 114.499 464.285 108.955 450 106 C 437.151 105.291 423.566 105.026 411 108 L 409.004 108.457 C 395.335 111.632 382.174 116.206 369 121 L 366.912 121.751 C 360.086 124.214 353.646 127.096 347.195 130.414 C 343.7 132.149 340.146 133.712 336.563 135.25 C 319.736 142.528 303.475 150.69 287.469 159.623 C 285.296 160.835 283.119 162.037 280.938 163.234 C 269.422 169.594 258.183 176.422 246.93 183.231 C 244.406 184.754 241.877 186.269 239.344 187.777 C 225.574 196.023 212.294 205.017 199 214 L 196.472 215.706 C 186.81 222.244 177.356 229.036 168 236 L 166.015 237.473 C 153.066 247.09 140.338 256.907 128.078 267.391 C 125.283 269.775 122.43 272.078 119.563 274.375 C 114.548 278.451 109.819 282.789 105.121 287.22 C 102.181 290.002 99.177 292.716 96.113 295.36 C 91.651 299.239 87.517 303.409 83.375 307.625 C 75.332 315.811 67.526 322.521 65.625 324.812 C 63.256 327.599 60.753 330.269 58.125 332.812 C 54.072 336.786 50.578 341.119 47.078 345.582 C 45.187 347.782 43.391 349.379 41 351 C 40.329 342.067 42.041 335.512 47.625 328.437 L 61.57 314.2 C 61.57 314.2 67.06 308.721 68.665 307.129 C 71.1 304.712 73.527 302.287 75.953 299.861 L 80.633 295.199 L 82.809 293.027 C 87.385 288.493 92.107 284.189 97 280 C 98.153 279.003 99.305 278.006 100.457 277.008 C 106.655 271.676 112.895 266.411 119.246 261.262 C 121.696 259.242 124.124 257.195 126.528 255.12 C 134.056 248.662 141.885 242.647 149.798 236.67 C 151.997 235.003 154.185 233.322 156.371 231.637 C 165.116 224.897 173.944 218.317 183 212 L 184.82 210.73 C 203.445 197.764 222.305 185.122 241.805 173.508 C 244.757 171.748 247.698 169.969 250.633 168.18 C 262.013 161.259 273.58 154.774 285.308 148.461 C 287.915 147.043 290.511 145.607 293.098 144.152 C 303.176 138.512 313.464 133.253 323.938 128.387 C 327.608 126.678 331.221 124.88 334.828 123.043 C 341.019 119.934 347.331 117.225 353.75 114.625 L 357.281 113.193 C 374.467 106.316 392.055 100.546 410 96 L 412.777 95.254 C 433.135 90.591 458.187 93.331 474.969 106.293 Z" fill="#C05034"/>
  <path d="M79.242 200.902c11.362 7.095 17.16 15.453 20.317 28.387 2.514 15.445-.693 28.845-9.559 41.711-5.49 6.95-13.557 12.32-22 15-9.942.957-18.564.936-27-5l-3.25-2.25c-8.802-8.802-12.883-19-13.067-31.386.01-6.55.243-12.896 1.317-19.364h2l.313-2.203c2.2-8.955 11.28-18.393 18.933-23.211 8.792-4.485 22.688-6.17 31.996-1.684z" fill="#104556"/>
  <path d="M299 243c4.835 8.881 5.995 21.123 4 31-2.449 7.404-6.218 14.209-10 21a9701.886 9701.886 0 0 0-2.27 4.195c-9.063 16.497-9.063 16.497-15.73 20.805-3.082.746-6.155 1.01-9.313 1.25l-2.533.234c-2.05.188-4.102.354-6.154.516l1 2c5.458.111 10.615-.083 16-1-.993 2.88-1.881 3.923-4.469 5.598-4.546 1.805-8.557 1.926-13.406 2.027-1.727.052-3.453.106-5.18.164l-2.53.084c-2.247.118-4.44.342-6.669.639-16.696 2.176-34.104-.827-50.746-2.512v-4a64.287 64.287 0 0 1 6.75-4.75c1.397-.893 2.795-1.786 4.191-2.68l2.106-1.327c2.588-1.647 5.111-3.383 7.64-5.118 7.804-5.213 15.91-9.937 23.983-14.716 2.924-1.768 5.784-3.63 8.63-5.52C246 290 246 290 249 290c-.524 5.32-1.774 9.277-4.188 14.125l-1.73 3.57c-3.803 6.037-9.28 9.194-15.395 12.492-4.553 2.147-4.553 2.147-7.687 5.813 12.597-3.623 22.484-8.771 29.125-20.438 1.658-3.382 2.264-6.683 2.914-10.378 1.205-6.418 2.344-10.472 7.834-14.364a123.87 123.87 0 0 1 5.326-3.12c3.079-1.455 3.079-1.455 3.801-4.7l-3-.75c-5.694-1.628-11.614-4.206-16-8.25-.992-3.425-.763-6.538 0-10 3.17-5.412 7.227-8.626 13-11 3.205-.758 6.425-1.242 9.688-1.688l2.69-.379c17.846-2.399 17.846-2.399 23.622 2.067z" fill="#F7A400"/>
  <path d="M 652 418 L 655 418 C 657.008 420.336 657.008 420.336 659.125 423.375 L 661.258 426.398 C 664.128 430.684 664.573 433.906 664 439 C 659.295 458.329 646.23 473.84 633.362 488.431 C 632.009 490 630.68 491.59 629.375 493.199 C 627.439 495.482 625.593 497.398 623.312 499.312 C 620.259 501.918 617.258 504.586 614.312 507.312 C 606.642 514.216 598.602 521.002 589.372 525.711 C 586.899 527.055 584.592 528.585 582.252 530.143 C 576.599 533.848 570.988 537.228 564 536 C 560.412 533.623 559.266 529.373 557.812 525.5 L 556.999 523.35 C 554.918 517.497 554.289 512.21 555 506 L 557.273 505.223 C 568.43 501.049 575.641 494.367 582.625 484.848 C 585.4 481.118 590.327 479.83 590.327 479.83 C 597.478 478.503 601.441 475.074 605.687 469.437 C 608.36 466.147 610.987 465.027 614.937 463.562 C 624.714 459.816 628.345 453.039 632.641 443.832 C 634.816 439.3 636.732 435.945 640.75 432.875 C 645.113 429.251 647.68 425.062 650.457 420.16 L 652 418 Z" fill="#F0A678"/>
  <path d="M497 212c8.476 2.77 8.476 2.77 11.563 4.125 6.555 2.353 13.857 2.03 20.738 2.086l5.896.086c3.073.041 6.145.078 9.217.104 2.984.028 5.966.074 8.95.122l2.793.01 2.59.05 2.276.025c2.54.504 3.407 1.36 4.977 3.392a59.63 59.63 0 0 1 1.687 7.25l.378 2.23c2.2 14.585 2.954 30.748-3.065 44.52-2.83 2.83-5.7 2.417-9.5 2.563-1.448.071-2.896.144-4.344.218l-2.144.106c-4.018.226-8.015.661-12.012 1.113l-1.758-2.887a5383.291 5383.291 0 0 0-2.367-3.8l-1.148-1.897C527.77 265.12 522.51 259.723 515 258c-7.388-.605-13.91-.026-21 2-2.625.563-2.625.563-5 0-3.317-3.099-6.787-6.61-7.203-11.277l-.047-2.66-.078-2.653c.328-2.41.328-2.41 1.55-4.121 2.094-1.518 3.995-2.225 6.465-2.977l2.45-.761L494 235l1-6-2.938-.75C489 227 489 227 488.033 225.281c-.05-3.654 2.068-5.341 4.406-8.031l2.558-2.984L497 212z" fill="#D4D3D9"/>
  <path d="m461.063 250.875 2.892.816a710.254 710.254 0 0 1 5.553 1.596c2.11.604 4.237 1.15 6.367 1.682 3.323 1.096 5.384 2.431 8.063 4.656l2.34 1.914L488 263c-.48 2.725-1.064 5.166-2.055 7.758-1.204 4.129-1.164 7.846-1.07 12.117l.027 2.375c.024 1.917.06 3.833.098 5.75l-2.5.262c-6.789.826-12.917 2.053-19.375 4.238-12.506 4.09-24.96 4.715-38.023 4.904-1.388.022-2.776.052-4.164.089-8.172.2-14.688.23-20.938-5.493-5.058-5.082-8.433-10.035-8.625-17.313.195-5.59.913-8.755 4.973-12.64a204.477 204.477 0 0 1 11.027-7.922l2.142-1.446c5.037-3.211 9.592-4.793 15.483-5.679l2.174-.333c2.127-.298 4.254-.552 6.389-.792l2.13-.262c9.24-1.07 16.451-.338 25.37 2.262z" fill="#FAA500"/>
  <path d="M488 153c.719 1.637.719 1.637 1 4-9.035 17.793-24.405 25.217-41.925 32.607-2.246.949-4.486 1.911-6.725 2.875a365.575 365.575 0 0 1-24.482 9.457c-5.463 1.891-10.772 4.024-16.055 6.374a851.917 851.917 0 0 1-22.188 9.312A436.598 436.598 0 0 0 352 229l-5.018 2.41a8912.866 8912.866 0 0 0-9.545 4.59l-1.846.889c-1.803.869-3.605 1.74-5.407 2.611l-3.563 1.719a303.17 303.17 0 0 0-7.535 3.812l-1.93.998c-1.773.92-3.541 1.852-5.308 2.783C309 250 309 250 306 249c-1.535-1.926-1.535-1.926-3.063-4.313l-1.535-2.363c-1.249-2.07-2.336-4.156-3.402-6.324a9424.144 9424.144 0 0 1 14.02-7.251c1.582-.817 3.163-1.635 4.744-2.455 9.796-5.077 19.647-9.98 29.657-14.622a301.716 301.716 0 0 0 8.829-4.297c9.6-4.849 19.458-9.167 29.307-13.484 3.503-1.544 6.956-3.133 10.361-4.883 3.647-1.846 7.372-3.363 11.177-4.852 3.435-1.367 6.838-2.804 10.24-4.25a69838.62 69838.62 0 0 1 3.977-1.683c2.03-.86 4.06-1.722 6.087-2.587 7.616-3.247 15.19-6.312 23.098-8.8 2.375-.793 4.608-1.72 6.878-2.774 10.149-4.67 20.935-7.884 31.625-11.062z" fill="#C45234"/>
  <path d="M 466 110 L 468.941 111.234 C 475.638 114.308 481.909 118.091 485 125 C 481.511 124.417 479.922 123.218 477.437 120.75 C 471.828 115.693 465.125 111.845 457.437 111.437 C 453.007 111.684 449.327 113.329 445.308 115.109 C 442.454 116.211 437 118 437 118 L 433.852 119.172 C 427.078 121.699 420.308 124.225 413.609 126.945 C 411.582 127.763 409.551 128.57 407.516 129.367 C 400.236 132.222 393.051 135.313 385.973 138.637 C 383.391 139.816 380.774 140.917 378.125 141.937 C 371.268 144.635 364.645 147.827 358 151 L 354.793 152.527 C 337.524 160.762 320.418 169.207 303.687 178.5 C 300.187 180.434 296.807 181.76 293 183 L 290.27 184.84 C 286.962 187.025 283.57 188.743 280 190.437 C 269.303 195.657 259.167 201.828 249 208 L 246.845 209.304 C 234.977 216.514 223.475 224.284 211.949 232.024 C 208.903 234.064 205.849 236.091 202.793 238.117 C 197.984 241.316 193.24 244.611 188.563 248 L 186.298 249.64 C 176.742 256.597 167.36 263.784 158 271 L 155.936 272.587 C 147.676 278.949 139.69 285.577 131.824 292.419 C 129.91 294.075 127.991 295.724 126.066 297.367 C 120.14 302.446 114.291 307.505 108.871 313.131 C 107.167 314.833 105.418 316.378 103.574 317.926 C 99.849 321.16 96.358 324.578 92.891 328.082 L 91.259 329.731 C 89.016 332.001 86.778 334.274 84.543 336.552 C 82.893 338.233 81.236 339.908 79.578 341.582 L 78.06 343.142 C 75.536 345.682 68.625 356.007 65.325 357.414 C 63.974 358.39 67.31 350.97 66 352 C 67.669 347.843 70.655 344.886 73.687 341.687 L 75.491 339.771 C 81.52 333.418 87.691 327.203 93.875 321 L 95.364 319.503 C 101.063 313.78 106.86 308.249 113 303 C 114.608 301.546 116.212 300.088 117.813 298.625 C 122.11 294.747 126.537 291.071 131.039 287.434 C 133.69 285.246 136.309 283.019 138.895 280.755 C 146.632 274.023 154.67 267.76 162.87 261.603 C 164.944 260.043 167.01 258.472 169.074 256.899 C 178.19 249.973 187.504 243.393 197 237 L 198.837 235.76 C 202.538 233.265 206.254 230.794 209.979 228.336 C 211.351 227.429 212.72 226.519 214.087 225.605 C 243.962 205.645 275.412 187.835 307.332 171.385 C 309.803 170.101 312.265 168.801 314.719 167.485 C 335.654 156.275 357.132 146.244 379 137 C 380.252 136.468 381.503 135.936 382.755 135.404 C 411.615 123.144 411.615 123.144 426 118 C 428.96 116.934 431.919 115.865 434.877 114.794 C 436.886 114.068 438.896 113.345 440.907 112.626 L 443.652 111.636 L 446.121 110.753 C 447.981 110.151 447.981 110.151 449 109 C 428.261 108.331 428.261 108.331 408 112 C 406.097 112.53 404.193 113.057 402.289 113.582 C 388.702 117.385 375.745 121.721 362.946 127.692 C 360.039 128.982 357.111 130.098 354.125 131.195 C 346.363 134.161 338.952 137.717 331.5 141.375 L 329.348 142.426 C 306.998 153.344 284.988 164.679 263.618 177.442 C 261.198 178.882 258.769 180.302 256.332 181.711 C 247.096 187.06 238.109 192.725 229.186 198.581 C 226.684 200.198 224.173 201.8 221.652 203.387 C 216.177 206.865 210.792 210.465 205.438 214.125 L 202.56 216.091 C 188.437 225.779 174.682 235.903 161.126 246.366 C 158.962 248.026 156.791 249.678 154.613 251.32 C 146.863 257.184 139.291 263.175 131.922 269.512 C 129.261 271.768 126.558 273.973 123.812 276.125 C 119.559 279.494 115.55 283.077 111.547 286.738 C 109.037 288.968 106.449 291.046 103.812 293.125 C 98.322 297.555 93.398 302.458 88.478 307.508 C 85.426 310.63 82.338 313.615 79.02 316.453 C 74.823 320.07 71.103 324.033 67.375 328.125 C 63.134 332.775 58.939 337.09 54 341 L 51.125 343.313 L 40.758 354.51 L 39.075 352.559 L 48.266 342.658 C 50.199 340.606 52.132 338.554 54.063 336.5 L 56.053 334.39 C 60.014 330.176 63.849 325.895 67.553 321.451 C 67.553 321.451 74.46 314.529 76.594 312.781 C 81.151 308.923 85.319 304.758 89.5 300.5 C 94.816 295.087 100.248 289.946 106 285 C 107.608 283.546 109.212 282.088 110.813 280.625 C 115.128 276.731 119.571 273.033 124.09 269.379 C 126.67 267.27 129.21 265.127 131.74 262.961 C 138.644 257.056 145.746 251.468 153 246 L 154.839 244.606 C 159.539 241.044 164.261 237.511 169 234 L 171.08 232.458 C 183.214 223.497 195.699 215.104 208.286 206.795 C 211.299 204.802 214.303 202.795 217.303 200.783 C 237.476 187.269 237.476 187.269 246.469 182.438 C 250.671 180.051 254.733 177.434 258.802 174.828 C 264.393 171.281 270.169 168.132 276 165 C 277.933 163.951 279.865 162.902 281.797 161.852 C 286.928 159.069 292.064 156.294 297.199 153.519 C 299.533 152.253 301.863 150.978 304.188 149.695 C 313.502 144.589 323.099 140.245 332.815 135.965 C 335.53 134.763 338.237 133.545 340.938 132.312 L 343.461 131.168 C 345.284 130.329 347.101 129.476 348.914 128.613 C 382.87 112.563 429.096 94.027 466 110 Z" fill="#150805"/>
  <path d="M453 194c1.93 1.2 1.93 1.2 3.875 2.688C467.09 203.734 478.921 206.877 491 209c-.543 3.697-1.409 5.876-3.688 8.813-7.036 10.214-10.27 21.842-10.312 34.187-4.184-.626-7.795-1.605-11.723-3.203-2.323-.873-2.323-.873-5.023-1.344-7.374-1.48-7.374-1.48-10.078-4.469a114.65 114.65 0 0 1-2.844-4.757c-2.142-3.582-5.04-6.35-9.008-7.868-4.14-.64-8.396-.237-12.568.032-2.104.062-2.104.062-5.756-.391-2.545-2.902-3.409-5.357-3.312-9.188C417 217 417 217 419 215c2.383-.195 2.383-.195 5.125-.125l2.758.055L429 215c.417-3.374.417-3.374 0-7-2.373-2.009-2.373-2.009-5-3 2.485-3.728 5.16-4.506 9.188-6a3095.112 3095.112 0 0 0 3.918-1.5l1.962-.734c1.916-.76 3.749-1.63 5.608-2.516 3.52-1.324 4.853-1.538 8.324-.25z" fill="#D3D2D8"/>
  <path d="M79.242 200.902C89.62 207.382 95.966 215.038 99 227c1.524 6.64 2.947 14.308 1 21-4.845 5.865-11.851 9.563-19 12 1.841-6.577 1.841-6.577 3.043-9.785 2.19-7.355 2.48-16.343-1.105-23.278C79.484 221.74 74.819 217.377 69 215c-7.053-.942-13.237-.338-19 4-6.125 5.57-9.531 11.05-10.313 19.3-.379 11.037 2.165 17.559 9.313 25.7v2c-3.063.291-4.623.231-7.281-1.398-5.545-4.94-9.017-9.679-11.719-16.602l-1.094-2.793c-2.079-7.357-2.428-16.194.309-23.41C30.947 218.944 32.8 216.51 35 214l2.41-2.75c10.245-10.894 27.287-17.36 41.832-10.348z" fill="#0E647F"/>
  <path d="M251 267a95.25 95.25 0 0 1 5 4 132.385 132.385 0 0 0 6 3c-2.66 3.13-6.03 4.733-9.625 6.563-24.712 12.892-48.46 28.161-70.805 44.8a278.993 278.993 0 0 1-7.015 5.055c-7.464 5.203-14.548 10.736-21.52 16.585A748.329 748.329 0 0 1 147 352l-2.075 1.743c-4.012 3.228-6.564 5.034-11.925 4.632l-2.875-.164L128 358c1.25-3.749 2.779-4.646 5.875-7.063 4.008-3.195 7.856-6.456 11.625-9.937 5.33-4.893 10.856-9.476 16.5-14l3.606-2.914C173.284 317.893 181.04 311.83 189 306l2.027-1.488c8.77-6.425 17.598-12.723 26.692-18.68 3.49-2.29 6.933-4.644 10.375-7.008l3.261-2.221a941.332 941.332 0 0 0 6.435-4.423l3-2.032 2.677-1.838c2.82-1.458 4.405-1.727 7.533-1.31z" fill="#C25134"/>
  <path d="M346 35c8.065 6.792 13.081 14.543 15 25 1.004 12.59-.37 22.61-7.969 32.863-3.196 3.363-6.638 4.84-11.031 6.137l-2.438.75c-7.87.768-14.19.241-21.562-2.75v-2l2.379-.516c9.899-2.283 15.759-4.345 21.36-13.168 3.839-7.048 4.305-13.386 2.644-21.23-2.41-7.739-6.466-11.966-13.211-16.246-5.545-2.144-13.077-1.814-18.692-.047A48.455 48.455 0 0 0 307 47l-3 1.75-2 1.25c.866-7.362 2.387-11.715 7.375-17.25l2.336-2.64c9.195-8.474 25.586-1.082 34.289 4.89z" fill="#0E637F"/>
  <path d="M516.688 262.688c6.092 3.046 10.756 6.583 13.617 12.94 1.83 6.24 1.725 12.928-.992 18.872-2.526 4.272-5.505 6.659-10 8.75-6.848 1.55-12.26 1.74-18.563-1.688-5.802-3.837-9.556-8.981-11.75-15.562-.662-7.424-.73-13.056 4-19 7.13-6.206 14.769-8.055 23.688-4.313z" fill="#CECDD3"/>
  <path d="M70.125 220.625c5.099 2.787 8.742 6.93 10.875 12.375.832 7.321 1.467 14.852-2.688 21.25-4.813 5.932-9.463 9.308-17.124 10.188-4.971-.16-8.522-2.163-12.188-5.438-5.441-6.923-6.851-13.279-6-22 2.04-6.892 5.421-12.766 11.813-16.313 5.444-2.465 9.848-2.498 15.312-.062z" fill="#A8A6A5"/>
  <path d="M331.106 49.652c3.76 2.676 6.829 6.218 8.894 10.348.812 8.317 1.142 15.46-4.277 22.262-4.473 4.513-8.98 6.859-15.41 7.05-5.242-.06-9.045-1.27-13.313-4.312-4.769-4.894-6.295-9.614-6.375-16.375.13-6.829 1.163-10.352 6.023-15.305 7.416-6.767 15.436-8.632 24.457-3.668z" fill="#AAA8A7"/>
  <path d="M515.938 495.563c5.261.025 8.48 2.157 12.793 4.972 5.123 3.307 10.153 3.761 16.097 4.121C547 505 547 505 549 507c-.333 7.01-2.66 13.551-7.57 18.621-1.746 1.57-3.546 2.98-5.43 4.379l-3.125 2.438c-5.135 2.812-11.343 1.556-16.875.562-5.01-1.498-6.427-3.6-8.93-7.992L506 523l-1.313-2.438c-1.473-5.493-1.654-9.532.844-14.777 5.624-9.691 5.624-9.691 10.406-10.223z" fill="#D3D2D8"/>
  <path d="M356 38c8.745 3.957 15.102 11.368 19 20 4.739 13.409 3.69 24.065-2 37-3.904 7.667-8 10.828-16.063 13.875-5.611 2.178-11.114 4.497-16.57 7.047-6.947 3.164-12.921 4.348-20.43 2.203C318 117 318 117 317 115l3.254-.55 4.309-.762 2.134-.358c12.658-2.275 22.646-9.042 30.303-19.33 1.838-3.343 1.838-3.343 3-7l1.059-2.176c4.451-9.905 4.716-22.207 1.918-32.64-1.539-3.8-3.157-7.109-5.645-10.371C356 40 356 40 356 38zM83 197c10.525 1.359 19.431 6.741 26 15 9.037 12.557 10.672 25.423 8.313 40.625-1.072 4.44-2.714 6.45-6.313 9.375a1145.841 1145.841 0 0 0-4.813 4.375 845.04 845.04 0 0 1-11.113 9.789 198.33 198.33 0 0 0-4.617 4.234l-2.644 2.477-2.418 2.305c-2.553 1.94-4.242 2.473-7.395 2.82 2.411-3.46 4.995-5.805 8.375-8.25 4.787-3.633 7.691-7.548 10.625-12.75l1.406-2.445c7-12.982 7.003-27.033 3.633-41.192C98.717 212.61 92.733 204.603 83 199v-2z" fill="#104354"/>
  <path d="M331.48 42.875c6.88 4.045 11.874 9.98 14.043 17.676 1.778 9.138.372 15.585-4.523 23.449l-1.688 2.813c-5.713 5.404-11.604 7.514-19.437 7.75-7.883-.326-12.825-2.082-18.188-7.876C295.435 78.563 295.012 71.147 296 61c2.126-7.533 7.815-12.516 14-17 6.423-3.127 14.733-3.505 21.48-1.125zm-28.132 14.223C299.702 62.243 300.488 68.992 301 75c1.85 6.415 5.443 9.967 11.188 13.25 6.728 1.794 12.963 1.496 19.058-1.977 3.96-2.875 6.966-6.71 8.754-11.273.393-3.53.393-3.53.375-7.375l.086-3.898c-.662-5.352-3.233-9.108-7.399-12.477-11.308-8.308-21.447-3.964-29.714 5.848z" fill="#080909"/>
  <path d="M491 481c4.074 1.61 6.765 4.538 9.75 7.625l1.535 1.563A896.456 896.456 0 0 1 506 494c-4.653 15.195-4.653 15.195-10.113 19.395-3.266 1.488-6.436 2.629-9.887 3.605l-2.219.813c-3.533 1.24-6.22 1.339-9.781.187-1.577-1.577-1.322-3.121-1.438-5.313.215-12.602 9.929-23.178 18.438-31.687z" fill="#EEA477"/>
  <path d="M507 354c.35 3.226.324 4.575-1.68 7.203l-2.195 2.047-2.18 2.078c-3.147 2.705-3.147 2.705-6.004 2.586l-2.378-.289-2.371-.273C488 367 488 367 485 366c-4.78-.284-4.78-.284-9.313 1-5.876 2.187-12.168 1.17-18.199.008-7.696-1.33-15.336-1.363-23.129-1.399-6.868-.145-11.578-.768-17.359-4.609-1.208-2.138-1.208-2.138-2-4 7.6.887 7.6.887 9.836 1.52 3.028.672 5.94.69 9.039.73l3.617.078c3.532-.091 3.532-.091 6.328-1.906 3.942-1.763 6.304-1.34 10.494-.768 14.06 1.81 28.423.328 42.315-1.998A50.463 50.463 0 0 1 507 354z" fill="#CBCAD0"/>
  <path d="M71.27 214.883c6.844 3.952 11.693 9.87 14.73 17.117.933 8.315.558 16.365-3 24l-1.125 2.688c-4.675 5.766-11.656 9.497-18.926 10.632-5.734.456-9.29-1.08-13.87-4.476-5.99-5.314-9.6-11.102-10.415-19.176-.122-10.899 1.9-17.945 9.43-25.938 6.434-5.84 14.828-8.095 23.175-4.847zm-22.04 9.953C43.566 232.03 41.955 238.914 43 248c2.022 6.472 6.036 10.677 11.313 14.813 4.372 1.932 8.285 1.944 12.769.53 5.922-2.626 9.556-6.738 13.055-12.077 2.265-5.946 2.005-15.02-.082-20.954C76.77 224.86 72.189 220.768 66 219c-6.729-.762-12.063.953-16.77 5.836z" fill="#070809"/>
  <path d="M324 55c3.323 2.075 6.233 4.466 8 8 .414 4.498.532 8.64-1.125 12.875-2.823 3.2-5.535 5.712-9.867 6.477-4.503.187-7.547-.484-11.008-3.352-3.575-3.945-3.56-8.236-3.422-13.336.775-4.892 3.348-7.09 7.235-10.039 3.493-.998 6.647-1.401 10.187-.625z" fill="#0B0B0B"/>
  <path d="M65 229c3.752 2.015 5.636 3.455 8 7 .638 4.652 1.086 9.729-.98 14.05-2.209 2.739-4.635 4.983-8.02 5.95-6.918.659-6.918.659-10.875-1.75-4.096-4.337-4.565-7.958-4.445-13.777.587-4.536 3.06-7.124 6.07-10.348 3.39-1.695 6.59-1.773 10.25-1.125z" fill="#090A0B"/>
  <path d="M481 369c6.408.37 6.408.37 9.05 3.184C503.524 391.65 506.682 416.01 506 439c-1.925-.34-1.925-.34-4-1-2.08-4.473-2.475-9.144-2.938-14-1.344-12.38-3.742-23.67-9.062-35l-1.293-2.758c-1.801-3.713-3.628-7.249-6.02-10.617C481 373 481 373 481 369z" fill="#B28130"/>
  <path d="M356 38c8.78 3.973 15.015 11.382 19 20 1.115 3.006 1.64 5.82 2 9l.531 3.207c.365 3.629.458 6.274-.531 9.793-4.187 3.882-9.18 7-15 7 .882-6.554.882-6.554 1.518-8.963C366.157 66.884 364.872 53.792 359 44l-1.668-2.188C356 40 356 40 356 38z" fill="#0E617C"/>
  <path d="M558 426c2 2 2 2 2.047 4.828l-.297 3.422-.266 3.39c-.478 3.321-1.323 6.22-2.484 9.36-12.279 2.487-12.279 2.487-18 2-2.363-2.363-2.296-2.906-2.313-6.125.166-4.666.324-9.103 3.313-12.875 5.547-3.202 11.634-4.813 18-4z" fill="#AB3A23"/>
  <path d="M613 178h3c-.538 4.769-1.546 8.701-3.375 13.125-5.536 15.19-6.015 31.72-6.891 47.721l-.207 3.474-.164 3.102C605 248 605 248 603 251h-4c.579-10.675 1.414-21.3 2.565-31.929a603.076 603.076 0 0 0 .48-4.664c1.315-13.3 3.839-24.858 10.955-36.407z" fill="#120B00"/>
  <path d="M437.906 233.95c3.504 1.758 5.048 3.708 7.094 7.05-.188 2.375-.188 2.375-1 4-3.918.847-7.754 1.145-11.75 1.25l-2.86.078L427 246l-2-3c-3.29.788-3.29.788-5.375 4.063C417 250 417 250 414.187 250.375L412 250c.443-5.431 1.489-9.715 5-14 6.44-5.433 13.313-4.794 20.906-2.05z" fill="#CDCCD1"/>
  <path d="M621 294c2.509.809 4.64 1.795 7 3v4c-2.563-.427-4.693-.837-7-2.063-2.634-1.234-4.119-1.429-7-.937-3.656 3.146-6.708 6.03-7.434 10.93.144 3.208.144 3.208 2.586 5.265l2.786 1.93c4.863 3.406 4.863 3.406 5.859 5.75 1.275 13.338 1.275 13.338-1.797 17.875l-2 2.25-4-1 1-3.312c1.52-6.04 1.983-12.739 0-18.688a206.747 206.747 0 0 0-5-2c-2.813-1.75-2.813-1.75-5-4-.926-4.072.102-6.576 2.125-10.062 4.782-6.96 9.154-10.386 17.875-8.938z" fill="#140C00"/>
  <path d="M526 181c13.016-.485 24.471.365 37 4v4c-3.236-.485-6.291-1.085-9.438-2-5.618-1.423-11.294-1.46-17.062-1.625l-3.36-.117A1467.576 1467.576 0 0 0 525 185l1-4z" fill="#150D00"/>
  <path d="M542 167c11.65-.912 23.675 1.261 34 7l-1 3c-4.765-.58-9.114-1.555-13.688-3-6.457-1.91-12.597-2.754-19.312-3v-4z" fill="#1D1200"/>
  <path d="M614 236c2.899.322 4.824.89 7.313 2.438 2.652 4.028 2.276 7.881 1.687 12.562-.668 2.857-1.419 4.438-3 7-2.688.938-2.688.938-5 1 .458-3.47.891-6.674 2-10 .552-4.744.552-4.744-1.5-8.75L614 239v-3z" fill="#180F00"/>
  <path d="M557 282c.043 1.666.04 3.334 0 5-2.457 2.457-8.39 1.986-11.754 2.063-2.416 0-4.83-.018-7.246-.063-.625-1.875-.625-1.875-1-4 2.663-2.663 4.615-2.63 8.313-3.188l3.425-.543c3.056-.252 5.318-.048 8.262.731z" fill="#C9C8CE"/>
  <path d="M496 277c4.177.539 7.603 2.07 11.379 3.828 1.92.859 3.872 1.652 5.836 2.406l3.285 1.266 3.094 1.156C522 287 522 287 522.844 289.156L523 291c-5.561-.363-9.45-2.064-14.355-4.656-4.096-2.081-8.356-3.71-12.645-5.344v-4z" fill="#191718"/>
  <path d="M62 236c2.607 2.607 2.239 4.473 2.266 8.027C64 246 64 246 62 249c-3 .375-3 .375-6 0-2.723-4.084-2.385-6.146-2-11 3.224-2.15 4.267-2.383 8-2z" fill="#0E637E"/>
  <path d="M320 61c1.813 1.125 1.813 1.125 3 3 .394 3.15.528 5.119-1.125 7.875-2.717 1.63-4.771 1.455-7.875 1.125-2-2-2-2-2.313-5.438.313-3.562.313-3.562 1.5-5.5 2.473-1.45 3.992-1.485 6.813-1.062z" fill="#0E617C"/>
  <path d="m425 87-1 4-3.078.367C412.575 92.378 404.28 93.526 396 95c3.564-5.346 10.541-6.491 16.625-7.75 4.135-.306 8.232-.335 12.375-.25z" fill="#0F3E4E"/>
  <path d="M626 183c2.867.573 3.861.862 6 3 .438 2.813.438 2.813 0 6-2.313 2.875-2.313 2.875-5 5h-3c.141-1.771.288-3.542.438-5.313l.246-2.988C625 186 625 186 626 183z" fill="#191000"/>
  <path d="M63 233c2.375.313 2.375.313 5 1 2.7 4.049 2.655 7.246 2 12-1.688 3.563-1.688 3.563-4 6-2.75.375-2.75.375-5 0l2.563-2.438c1.722-2.048 2.403-3.132 2.617-5.824-.413-4.029-1.233-7.167-3.18-10.738z" fill="#0F3F4F"/>
  <path d="m325 62 4 2c-.113 4.723-.377 8.075-3.063 12.063-3.98 2.625-6.244 2.335-10.937 1.937l-1-2 6.055-1.367c2.152-.538 2.152-.538 3.945-2.633.462-2.433.462-2.433.625-5.125l.227-2.758L325 62z" fill="#0F3C4C"/>
  <path d="M513 355c3.767.523 6.274 1.274 9 4v4c-3.674 1.176-7.17 1.074-11 1l2-9z" fill="#C4C3C9"/>
  <path d="M156 226a2893.601 2893.601 0 0 1-6.688 5.313l-1.896 1.513c-3.354 2.652-6.674 5.078-10.416 7.174.433-4.425 3.182-6.35 6.375-9.188l2.961-2.668c3.547-2.855 5.398-3.468 9.664-2.144z" fill="#0F3E4E"/>
  <path d="M571 156c5.095.432 8.845.754 13 4v2c-6.26.432-9.09-.073-14-4l1-2z" fill="#211500"/>
  <path d="M380 92c3.375 1.186 5.647 2.276 8 5-7.429 3.286-7.429 3.286-11 4 .557-3.344 1.352-6.033 3-9z" fill="#9F9D9C"/>
  <path d="m628 430-1 13h-3c-1.588-3.176-1.41-6.542-1-10 1.615-2.35 2.139-3 5-3z" fill="#160E00"/>
  <path d="M252 266c2.752 1.052 5.332 2.177 7.938 3.563 3.085 1.448 5.694 2.036 9.062 2.437-3.088 1.765-4.233 2-8 2-2.106-.734-2.106-.734-4.188-1.75l-2.105-.984C253 270 253 270 252.262 267.859L252 266z" fill="#251204"/>
  <path d="m92 274 2 3a570.014 570.014 0 0 1-5.188 4.938l-1.462 1.42c-3.018 2.814-5.204 4.286-9.35 4.642 3.072-4.407 6.801-7.295 11.074-10.45 2.032-1.415 2.032-1.415 2.926-3.55z" fill="#0E3847"/>
  <path d="M629 429h1c.054 1.791.093 3.583.125 5.375l.07 3.023C630 440 630 440 628 442c-1.007-5.035-.974-8.24 1-13z" fill="#DA9000"/>
  <path d="m64 240 1 4h2c-1.393 3.367-2.979 4.986-6 7l-3-2 4-1 2-8z" fill="#05151B"/>
  <path d="M416 124c-1.974 2.523-2.967 2.993-6.188 3.688L407 128l1-3c5.402-2.299 5.402-2.299 8-1z" fill="#110604"/>
  <path d="m408 127-1 3-5 1v-2l-2-1c4.625-2.125 4.625-2.125 8-1z" fill="#28100B"/>
</svg>